<svg xmlns="http://www.w3.org/2000/svg" viewBox="0 0 100 100" role="img" aria-label="G logo">
  <defs>
    <linearGradient id="gGradient" x1="0%" y1="0%" x2="100%" y2="100%">
  <stop offset="0%" stop-color="#60a5fa"/>
  <stop offset="100%" stop-color="#2563eb"/>
    </linearGradient>
  </defs>
  <!-- Circular mark -->
  <circle cx="50" cy="50" r="46" fill="url(#gGradient)" />
  <!-- Stylized G (negative space) -->
  <path d="M64.5 50.5c0-9.5-7.3-17.2-16.3-17.2-9 0-16.3 7.7-16.3 17.2s7.3 17.2 16.3 17.2c4.1 0 7.8-1.6 10.5-4.2l-4.6-4.6c-1.6 1.6-3.8 2.6-5.9 2.6-4.5 0-8.2-3.9-8.2-8.9s3.7-8.9 8.2-8.9c4.5 0 8.2 3.9 8.2 8.9 0 1.1-.2 2.2-.6 3.2h-7.6v5.9h13.6c.5-1.6.9-3.3.9-5.1z" fill="#fff" />
</svg>